# xmcd
#
# Track frame offsets:
#	150
#	15474
#	31369
#	47110
#
# Disc length: 873 seconds
# Revision: 0
# Processed by: cddbd v1.5.2PL0 Copyright (c) Steve Scherf et al.
# Submitted via: dBpowerAMP V12.0
#
DISCID=27036704
DTITLE=Adam Eckersley Band - Should Have Known Better EP
DYEAR=2012
DGENRE=Country
TTITLE0=Should've Known Better
TTITLE1=Long Enough To Disappear
TTITLE2=Don't Shit On My Blue Sky  
TTITLE3=Tomorrow Night, Same Again  
EXTD=
EXTT0=
EXTT1=
EXTT2=
EXTT3=
PLAYORDER=
